<svg id="Capa_1" data-name="Capa 1" xmlns="http://www.w3.org/2000/svg" viewBox="0 0 19.07 14.83"><defs><style>.cls-1{fill:#27224f;}</style></defs><title>indicadores economicos</title><path class="cls-1" d="M1.06,14.83A1.05,1.05,0,0,1,0,13.77V8.48A1.05,1.05,0,0,1,1.06,7.42,1.05,1.05,0,0,1,2.12,8.48v5.29A1.05,1.05,0,0,1,1.06,14.83Z"/><path class="cls-1" d="M5.3,14.83a1.05,1.05,0,0,1-1.06-1.06V4.24a1.06,1.06,0,0,1,2.12,0v9.53A1.06,1.06,0,0,1,5.3,14.83Z"/><path class="cls-1" d="M9.54,14.83a1.05,1.05,0,0,1-1.06-1.06V6.36a1.06,1.06,0,1,1,2.12,0v7.41A1.06,1.06,0,0,1,9.54,14.83Z"/><path class="cls-1" d="M13.77,14.83a1.06,1.06,0,0,1-1.06-1.06V1.06a1.06,1.06,0,1,1,2.12,0V13.77A1.05,1.05,0,0,1,13.77,14.83Z"/><path class="cls-1" d="M18,14.83A1.06,1.06,0,0,1,17,13.77V7.42a1.06,1.06,0,1,1,2.12,0v6.35A1.05,1.05,0,0,1,18,14.83Z"/></svg>