<?xml version="1.0" encoding="utf-8"?>
<!-- Svg Vector Icons : http://www.onlinewebfonts.com/icon -->
<!DOCTYPE svg PUBLIC "-//W3C//DTD SVG 1.1//EN" "http://www.w3.org/Graphics/SVG/1.1/DTD/svg11.dtd">
<svg version="1.1" xmlns="http://www.w3.org/2000/svg" xmlns:xlink="http://www.w3.org/1999/xlink" x="0px" y="0px" viewBox="0 0 1000 1000" enable-background="new 0 0 1000 1000" xml:space="preserve">
<metadata> Svg Vector Icons : http://www.onlinewebfonts.com/icon </metadata>
<g><g transform="translate(0.000000,511.000000) scale(0.100000,-0.100000)"><path d="M6285.5,4712.2c54.6-242.1,68.2-419.4,68.2-978.6c3.4-593.3-6.8-726.3-75-1036.6C6050.2,1674,5644.4,937.5,4907.9,204.4C4174.8-532.1,3438.2-937.9,2415.3-1166.4c-310.3-68.2-443.3-78.4-1036.6-75c-559.2,0-736.5,13.7-978.6,68.2L100-1101.6l23.9-88.7c40.9-187.5,259.1-716.1,405.8-992.3c225-422.8,501.2-791.1,866.1-1155.9c719.5-722.9,1629.9-1200.2,2642.6-1387.8c501.3-95.5,1374.2-85.2,1858.4,17.1C7475.5-4371.7,8761-3372.6,9426-1967.7c341,722.9,470.5,1299.2,474,2120.9c3.4,883.1-129.6,1483.3-504.7,2250.5C8948.6,3321,8188.2,4108.7,7294.8,4582.6c-276.2,146.6-804.7,364.9-992.3,405.8l-88.7,23.9L6285.5,4712.2z"/></g></g>
</svg>