<svg id="Capa_1" data-name="Capa 1" xmlns="http://www.w3.org/2000/svg" viewBox="0 0 48.06 48.06"><defs><style>.cls-1{fill:#fff;}</style></defs><title>clima_Soleado BLANCO</title><path class="cls-1" d="M24,37A12.94,12.94,0,1,1,37,24,12.94,12.94,0,0,1,24,37Zm0-21.65A8.72,8.72,0,1,0,32.75,24v0A8.72,8.72,0,0,0,24,15.32Z"/><path class="cls-1" d="M24.3,7.4a1.59,1.59,0,0,1-1.59-1.59h0V1.59a1.59,1.59,0,1,1,3.17-.25,1,1,0,0,1,0,.25V5.81A1.6,1.6,0,0,1,24.3,7.4Z"/><path class="cls-1" d="M15.15,9.7a1.57,1.57,0,0,1-1.37-.79L11.67,5.26a1.58,1.58,0,0,1,2.74-1.59l2.11,3.66A1.58,1.58,0,0,1,16,9.49a1.59,1.59,0,0,1-.8.21Z"/><path class="cls-1" d="M8.38,16.28a1.57,1.57,0,0,1-.79-.22L3.93,14a1.58,1.58,0,0,1,1.59-2.74l3.66,2.11a1.59,1.59,0,0,1-.8,3Z"/><path class="cls-1" d="M5.81,25.35H1.58a1.58,1.58,0,0,1,0-3.16H5.81a1.58,1.58,0,0,1,0,3.16Z"/><path class="cls-1" d="M4.46,36.61a1.58,1.58,0,0,1-.79-3l3.66-2.12a1.59,1.59,0,0,1,1.58,2.75L5.25,36.4A1.56,1.56,0,0,1,4.46,36.61Z"/><path class="cls-1" d="M12.58,44.93a1.6,1.6,0,0,1-1.37-2.38h0l2.11-3.66a1.59,1.59,0,0,1,2.75,1.58L14,44.13a1.58,1.58,0,0,1-1.37.8Z"/><path class="cls-1" d="M23.77,48.06a1.58,1.58,0,0,1-1.58-1.58h0V42.25a1.59,1.59,0,0,1,3.17,0v4.23A1.6,1.6,0,0,1,23.77,48.06Z"/><path class="cls-1" d="M35,45.19a1.58,1.58,0,0,1-1.37-.8l-2.11-3.65a1.58,1.58,0,0,1,2.74-1.59l2.11,3.66A1.59,1.59,0,0,1,35.83,45h0a1.56,1.56,0,0,1-.79.21Z"/><path class="cls-1" d="M43.34,37.07a1.57,1.57,0,0,1-.79-.22l-3.66-2.11A1.58,1.58,0,1,1,40.48,32l3.66,2.11a1.59,1.59,0,0,1-.8,3Z"/><path class="cls-1" d="M46.48,25.88H42.25a1.59,1.59,0,0,1,0-3.17h4.23a1.59,1.59,0,0,1,0,3.17Z"/><path class="cls-1" d="M40,16.73a1.58,1.58,0,0,1-.8-3h0l3.65-2.12a1.59,1.59,0,0,1,1.59,2.75l-3.66,2.11A1.56,1.56,0,0,1,40,16.73Z"/><path class="cls-1" d="M33.37,10a1.56,1.56,0,0,1-.79-.21A1.6,1.6,0,0,1,32,7.62l0,0,2.11-3.66a1.59,1.59,0,0,1,2.75,1.59L34.74,9.18a1.58,1.58,0,0,1-1.37.79Z"/></svg>