<svg id="Capa_1" data-name="Capa 1" xmlns="http://www.w3.org/2000/svg" viewBox="0 0 47.41 30.48"><defs><style>.cls-1{fill:#fff;}</style></defs><title>clima_parcialmente nublado BLANCO</title><path class="cls-1" d="M36.52,30.48H9.83A8.82,8.82,0,0,1,7.09,30,10,10,0,0,1,9.77,10.42,13,13,0,0,1,22.43,0,12.82,12.82,0,0,1,34.32,7.91a11.35,11.35,0,0,1,5.21,22,8.56,8.56,0,0,1-3,.54ZM10,14.64A5.81,5.81,0,0,0,8.36,26a4.58,4.58,0,0,0,1.47.25H36.52A4.42,4.42,0,0,0,38.09,26h.11a7.16,7.16,0,1,0-4.55-13.57l-2.23.8-.55-2.31a8.64,8.64,0,0,0-8.44-6.69,8.73,8.73,0,0,0-8.67,8.5v2.54l-2.49-.51A5.42,5.42,0,0,0,10,14.64Z"/></svg>