<svg id="Capa_1" data-name="Capa 1" xmlns="http://www.w3.org/2000/svg" viewBox="0 0 47.41 42.92"><defs><style>.cls-1{fill:#ed9200;}.cls-2{fill:#27224f;}</style></defs><title>clima</title><path class="cls-1" d="M22.86,33.45a.49.49,0,0,0-.42-.25H19.08l.44-5.3a.48.48,0,0,0-.32-.5.49.49,0,0,0-.57.2l-5.34,8.25a.5.5,0,0,0,0,.5.5.5,0,0,0,.43.25h3.36l-.45,5.79a.49.49,0,0,0,.34.5l.15,0a.49.49,0,0,0,.41-.24l5.34-8.74a.46.46,0,0,0,0-.49Z"/><path class="cls-1" d="M29.86,30.65a.32.32,0,0,0-.27-.16H27.44l.29-3.38a.31.31,0,0,0-.21-.32.3.3,0,0,0-.36.12l-3.42,5.28a.31.31,0,0,0,0,.31.32.32,0,0,0,.28.16h2.14l-.28,3.7a.3.3,0,0,0,.21.32l.1,0a.32.32,0,0,0,.26-.15L29.85,31a.31.31,0,0,0,0-.31Z"/><path class="cls-2" d="M36.06,7.77a12.47,12.47,0,0,0-1.73.13A12.84,12.84,0,0,0,22.44,0,13,13,0,0,0,9.78,10.41,10,10,0,0,0,7.09,30a8.87,8.87,0,0,0,2.74.44H36.52a8.69,8.69,0,0,0,3-.54A11.36,11.36,0,0,0,36.06,7.77Zm2.15,18.15-.11,0a4.37,4.37,0,0,1-1.58.29H9.83A4.61,4.61,0,0,1,8.36,26,5.81,5.81,0,0,1,10,14.64a6.11,6.11,0,0,1,1.2.12l2.48.51,0-2.54a8.68,8.68,0,0,1,17.12-1.81l.54,2.3,2.24-.8a7.12,7.12,0,1,1,4.55,13.5Z"/></svg>