<svg id="Capa_1" data-name="Capa 1" xmlns="http://www.w3.org/2000/svg" viewBox="0 0 61.82 37.41"><defs><style>.cls-1{fill:#27224f;}</style></defs><title>clima</title><path class="cls-1" d="M53.24,5.87a8.26,8.26,0,0,0-1.31.1,9.69,9.69,0,0,0-9-6,9.81,9.81,0,0,0-9.56,7.87,7.37,7.37,0,0,0-3.85,1.18A12.92,12.92,0,0,0,9.78,17.34,10,10,0,0,0,7.09,37a8.66,8.66,0,0,0,2.75.45H36.52a8.7,8.7,0,0,0,3-.55,11.29,11.29,0,0,0,7.89-10.81A11.13,11.13,0,0,0,47,23h6.6a6.39,6.39,0,0,0,2.22-.4A8.58,8.58,0,0,0,53.24,5.87Zm-15,27-.11,0a4.37,4.37,0,0,1-1.58.29H9.84a4.69,4.69,0,0,1-1.48-.25A5.81,5.81,0,0,1,10,21.56a5.42,5.42,0,0,1,1.19.13l2.48.5,0-2.53a8.73,8.73,0,0,1,8.68-8.51,8.64,8.64,0,0,1,8.44,6.69l.54,2.31,2.23-.8a7.11,7.11,0,0,1,9.54,6.7A7.1,7.1,0,0,1,38.21,32.85ZM54.78,19.61a3.35,3.35,0,0,1-1.19.23h-8a11.32,11.32,0,0,0-9.49-5.14,11.2,11.2,0,0,0-1.73.13,12.76,12.76,0,0,0-2.19-3.5,4.1,4.1,0,0,1,1.44-.28,4.51,4.51,0,0,1,.9.1l1.88.39,0-1.92A6.55,6.55,0,0,1,49.33,8.25L49.74,10l1.68-.61a5.5,5.5,0,0,1,1.82-.32,5.39,5.39,0,0,1,1.54,10.55Z"/></svg>