<svg id="Capa_1" data-name="Capa 1" xmlns="http://www.w3.org/2000/svg" viewBox="0 0 61.82 37.41"><defs><style>.cls-1{fill:#fff;}</style></defs><title>clima_nublado BLANCO</title><path class="cls-1" d="M53.24,5.87a8.17,8.17,0,0,0-1.31.1,9.69,9.69,0,0,0-9-6,9.81,9.81,0,0,0-9.56,7.87A7.41,7.41,0,0,0,29.52,9,12.92,12.92,0,0,0,9.78,17.34,10,10,0,0,0,7.09,37a8.61,8.61,0,0,0,2.75.45H36.52a8.8,8.8,0,0,0,3-.55,11.3,11.3,0,0,0,7.89-10.81A11.17,11.17,0,0,0,47,23h6.6a6.46,6.46,0,0,0,2.22-.4A8.58,8.58,0,0,0,53.24,5.87Zm-15,27h-.11a4.47,4.47,0,0,1-1.58.29H9.84a4.69,4.69,0,0,1-1.48-.25A5.81,5.81,0,0,1,10,21.56a5.29,5.29,0,0,1,1.19.13l2.48.5V19.66a8.73,8.73,0,0,1,8.68-8.51,8.64,8.64,0,0,1,8.44,6.69l.54,2.31,2.23-.8a7.14,7.14,0,1,1,4.65,13.5ZM54.78,19.61a3.23,3.23,0,0,1-1.19.23h-8A11.32,11.32,0,0,0,36.1,14.7a11.1,11.1,0,0,0-1.73.13,12.73,12.73,0,0,0-2.19-3.5,4.19,4.19,0,0,1,1.44-.28,4.59,4.59,0,0,1,.9.1l1.88.39V9.62A6.55,6.55,0,0,1,49.33,8.25L49.74,10l1.68-.61a5.39,5.39,0,1,1,3.36,10.23Z"/></svg>