<svg id="Capa_1" data-name="Capa 1" xmlns="http://www.w3.org/2000/svg" viewBox="0 0 60.26 44.77"><defs><style>.cls-1{fill:#ed9200;}.cls-2{fill:#27224f;}</style></defs><title>clima</title><path class="cls-1" d="M33.54,0a1.58,1.58,0,0,0-1.37,1.77L32.72,6a1.58,1.58,0,0,0,1.57,1.38h.2a1.59,1.59,0,0,0,1.37-1.78l-.54-4.19A1.57,1.57,0,0,0,33.54,0Z"/><path class="cls-1" d="M22,4.63a1.58,1.58,0,0,0-.3,2.22l2.57,3.36a1.59,1.59,0,0,0,2.52-1.93L24.21,4.93A1.58,1.58,0,0,0,22,4.63Z"/><path class="cls-1" d="M57.61,31.28l-3.9-1.63a1.59,1.59,0,1,0-1.21,2.93l3.9,1.63a1.66,1.66,0,0,0,.61.12,1.59,1.59,0,0,0,.6-3Z"/><path class="cls-1" d="M60.25,21a1.59,1.59,0,0,0-1.78-1.37l-4.19.55a1.58,1.58,0,0,0,.2,3.15h.21l4.19-.55A1.59,1.59,0,0,0,60.25,21Z"/><path class="cls-1" d="M55.33,11.71a1.58,1.58,0,1,0-1.92-2.52l-3.36,2.57a1.59,1.59,0,0,0-.3,2.22A1.57,1.57,0,0,0,51,14.6a1.62,1.62,0,0,0,1-.33Z"/><path class="cls-1" d="M43.78,2.65l-1.62,3.9A1.58,1.58,0,0,0,43,8.62a1.66,1.66,0,0,0,.61.12,1.58,1.58,0,0,0,1.46-1L46.7,3.87a1.58,1.58,0,1,0-2.92-1.22Z"/><path class="cls-2" d="M44.77,26.14a11.34,11.34,0,0,0-8.71-4.08,11.2,11.2,0,0,0-1.73.13,12.76,12.76,0,0,0-3.62-4.9l.1-.08A22.8,22.8,0,0,0,27,15l0,.05a12.84,12.84,0,0,0-4.48-.8A13,13,0,0,0,9.78,24.7,10,10,0,0,0,7.1,44.33a8.83,8.83,0,0,0,2.74.44H36.52a8.69,8.69,0,0,0,3-.54A11.3,11.3,0,0,0,47.15,31a.41.41,0,0,0,.07-.11,14.35,14.35,0,0,0-2.44-4.82A.17.17,0,0,1,44.77,26.14ZM38.21,40.21l-.11,0a4.37,4.37,0,0,1-1.58.29H9.84a4.67,4.67,0,0,1-1.48-.24A5.81,5.81,0,0,1,10,28.93a6,6,0,0,1,1.2.12l2.48.51L13.77,27a8.67,8.67,0,0,1,17.12-1.81l.53,2.3,2.23-.8a7.11,7.11,0,0,1,9.54,6.7A7.09,7.09,0,0,1,38.21,40.21Z"/><path class="cls-1" d="M49.21,22.21A13,13,0,0,0,36.39,10.94a13.64,13.64,0,0,0-1.68.1A12.93,12.93,0,0,0,27,15a22.8,22.8,0,0,1,3.85,2.17,8.54,8.54,0,0,1,4.44-2,8.86,8.86,0,0,1,1.14-.08A8.73,8.73,0,0,1,45,22.75a8.55,8.55,0,0,1-.24,3.32,14.35,14.35,0,0,1,2.44,4.82A12.75,12.75,0,0,0,49.21,22.21Z"/></svg>