<?xml version="1.0" encoding="utf-8"?>
<!-- Svg Vector Icons : http://www.onlinewebfonts.com/icon -->
<!DOCTYPE svg PUBLIC "-//W3C//DTD SVG 1.1//EN" "http://www.w3.org/Graphics/SVG/1.1/DTD/svg11.dtd">
<svg version="1.1" xmlns="http://www.w3.org/2000/svg" xmlns:xlink="http://www.w3.org/1999/xlink" x="0px" y="0px" viewBox="0 0 1000 1000" enable-background="new 0 0 1000 1000" xml:space="preserve">
<metadata> Svg Vector Icons : http://www.onlinewebfonts.com/icon </metadata>
<g><g transform="translate(0.000000,511.000000) scale(0.100000,-0.100000)"><path d="M2778.2,3428.9l-461.8-461.8h-639.5h-641.8v-639.5v-641.8l-466.4-466.4L100,750.7l466.4-466.4l466.4-468.7l9.2-819.6c9.2-902.7,16.2-965.1,177.8-1341.4c217-510.3,683.4-965.1,1202.9-1172.9c404-161.6,200.9-152.4,3206.9-152.4c2461.2,0,2726.7,4.6,2851.4,39.3c498.7,138.5,858.9,394.8,1119.8,796.5c242.4,367.1,346.3,845,279.4,1265.2C9748.5-763.8,9150.5-158.9,8347-25L8183.1,2.7l-36.9,150.1C7857.6,1291,6853.2,2129.1,5666.5,2219.1l-198.5,16.2v364.8v367.1h-641.8h-639.5l-461.8,461.8c-254,254-466.4,461.8-473.3,461.8C3244.6,3890.7,3032.2,3682.9,2778.2,3428.9z M3563.2,2193.7c249.3-53.1,658-267.8,574.9-302.5c-13.9-6.9-106.2-64.6-207.8-129.3c-258.6-168.5-595.7-512.5-775.8-789.6l-150.1-228.6l-193.9-39.3C2545,649.2,2268,536,2044,388.3c-101.6-67-189.3-117.7-193.9-113.1c-4.6,4.6-23.1,78.5-41.6,166.2C1586.9,1484.9,2517.3,2415.4,3563.2,2193.7z M5825.8,1454.9c826.5-145.4,1493.8-812.7,1639.2-1639.2c18.5-110.8,34.6-279.4,34.6-371.7v-170.9h341.7c228.6,0,385.6-11.5,473.3-34.6c399.4-103.9,708.8-411,812.7-808.1c150.1-579.5-217-1184.4-808.1-1339.1c-200.9-50.8-5132.5-50.8-5379.5,0c-664.9,138.5-1165.9,759.6-1165.9,1443c0,547.2,325.5,1073.6,808.1,1313.7c235.5,115.4,447.9,163.9,731.9,163.9h210.1l16.2,76.2c30,136.2,200.9,450.2,346.3,634.9C4348.2,1307.2,5082.4,1584.2,5825.8,1454.9z"/></g></g>
</svg>