<?xml version="1.0" encoding="utf-8"?>
<!-- Svg Vector Icons : http://www.onlinewebfonts.com/icon -->
<!DOCTYPE svg PUBLIC "-//W3C//DTD SVG 1.1//EN" "http://www.w3.org/Graphics/SVG/1.1/DTD/svg11.dtd">
<svg version="1.1" xmlns="http://www.w3.org/2000/svg" xmlns:xlink="http://www.w3.org/1999/xlink" x="0px" y="0px" viewBox="0 0 1000 1000" enable-background="new 0 0 1000 1000" xml:space="preserve">
<metadata> Svg Vector Icons : http://www.onlinewebfonts.com/icon </metadata>
<g><g transform="translate(0.000000,511.000000) scale(0.100000,-0.100000)"><path d="M3155.4,4053.6c0-9.4,16.5-110.9,35.4-228.8C3466.7,2152.6,2009.1,695,336.9,970.9c-115.6,18.9-219.3,35.4-228.8,35.4c-54.2,0,176.9-521.3,337.3-757.1c127.4-188.7,344.4-419.8,528.3-559c77.8-59,148.6-113.2,160.4-122.7c9.4-9.4-9.4-61.3-40.1-120.3c-87.3-155.7-195.8-502.4-228.8-726.4c-143.9-1007.1,448.1-2028.4,1396.3-2405.7c412.8-165.1,205.2-155.7,3276.1-155.7c2514.2,0,2785.5,4.7,2912.8,40.1c509.4,141.5,877.4,403.3,1143.9,813.7c247.6,375,353.8,863.2,285.4,1292.5C9745.2-871.1,9134.3-253.2,8313.6-116.4l-167.5,28.3l-37.7,153.3C7846.6,1095.9,7006.9,1897.8,5938.5,2129c-150.9,33-299.6,44.8-596.7,44.8h-393.9l-37.7,129.7c-205.2,735.9-674.6,1292.5-1363.3,1615.6C3329.9,4022.9,3155.4,4081.9,3155.4,4053.6z M5738,1395.5c844.4-148.6,1526-830.2,1674.6-1674.6c18.9-113.2,35.4-285.4,35.4-379.7v-174.5H7797c233.5,0,393.9-11.8,483.5-35.4c408-106.1,724.1-419.8,830.2-825.5c153.3-592-221.7-1209.9-825.5-1368c-205.2-51.9-5243.1-51.9-5495.5,0c-679.3,141.5-1191.1,776-1191.1,1474.1c0,559,332.6,1096.7,825.5,1342c240.6,117.9,457.6,167.5,747.7,167.5h214.6L3403-0.8c30.7,139.2,205.2,459.9,353.8,648.6C4228.5,1244.5,4978.5,1527.6,5738,1395.5z"/></g></g>
</svg>