<svg id="Capa_1" data-name="Capa 1" xmlns="http://www.w3.org/2000/svg" viewBox="0 0 60.26 44.77"><defs><style>.cls-1{fill:#fff;}</style></defs><title>clima_parcialmente soleado BLANCO</title><path class="cls-1" d="M33.54,0a1.58,1.58,0,0,0-1.37,1.76h0L32.72,6a1.58,1.58,0,0,0,1.57,1.38h.2A1.59,1.59,0,0,0,35.86,5.6l-.54-4.19A1.57,1.57,0,0,0,33.61,0Z"/><path class="cls-1" d="M22,4.63a1.57,1.57,0,0,0-.3,2.21h0l2.57,3.36a1.59,1.59,0,0,0,2.52-1.93L24.21,4.93A1.58,1.58,0,0,0,22,4.63Z"/><path class="cls-1" d="M57.61,31.28l-3.9-1.63a1.59,1.59,0,1,0-1.44,2.83l.23.1,3.9,1.63a1.57,1.57,0,0,0,1.21-2.88Z"/><path class="cls-1" d="M60.25,21a1.59,1.59,0,0,0-1.78-1.37l-4.19.55a1.58,1.58,0,0,0,.2,3.15h.21l4.19-.55A1.59,1.59,0,0,0,60.25,21Z"/><path class="cls-1" d="M55.33,11.71a1.58,1.58,0,1,0-1.92-2.52l-3.36,2.57a1.58,1.58,0,0,0,1,2.84,1.64,1.64,0,0,0,1-.33Z"/><path class="cls-1" d="M43.78,2.65l-1.62,3.9a1.57,1.57,0,1,0,2.91,1.19L46.7,3.87a1.58,1.58,0,0,0-2.92-1.22Z"/><path class="cls-1" d="M44.77,26.14a11.36,11.36,0,0,0-8.71-4.08,11.1,11.1,0,0,0-1.73.13,12.81,12.81,0,0,0-3.62-4.9l.1-.08A22.63,22.63,0,0,0,27,15v.05A13,13,0,0,0,9.78,24.7,10,10,0,0,0,7.1,44.33a8.78,8.78,0,0,0,2.74.44H36.52a8.56,8.56,0,0,0,3-.54A11.3,11.3,0,0,0,47.15,31a.41.41,0,0,0,.07-.11,14.35,14.35,0,0,0-2.44-4.82A.17.17,0,0,1,44.77,26.14ZM38.21,40.21H38.1a4.47,4.47,0,0,1-1.58.29H9.84a4.68,4.68,0,0,1-1.48-.24A5.81,5.81,0,0,1,10,28.93a6,6,0,0,1,1.2.12l2.48.51L13.77,27a8.67,8.67,0,0,1,17.12-1.81l.53,2.3,2.23-.8a7.14,7.14,0,1,1,4.56,13.52Z"/><path class="cls-1" d="M49.21,22.21A13,13,0,0,0,36.39,10.94a13.52,13.52,0,0,0-1.68.1A12.9,12.9,0,0,0,27,15a22.78,22.78,0,0,1,3.85,2.17,8.55,8.55,0,0,1,4.44-2A8.59,8.59,0,0,1,45,22.75a8.46,8.46,0,0,1-.24,3.32,14.35,14.35,0,0,1,2.44,4.82A12.74,12.74,0,0,0,49.21,22.21Z"/></svg>