<svg id="Capa_1" data-name="Capa 1" xmlns="http://www.w3.org/2000/svg" viewBox="0 0 47.35 46.72"><defs><style>.cls-1{fill:#fff;}</style></defs><title>clima_lluvia BLANCO</title><path class="cls-1" d="M36.06,7.77a12.47,12.47,0,0,0-1.73.13A12.83,12.83,0,0,0,22.44,0,13,13,0,0,0,9.78,10.41,10,10,0,0,0,7.09,30a8.78,8.78,0,0,0,2.74.44H36.52a8.56,8.56,0,0,0,3-.54A11.36,11.36,0,0,0,36.06,7.77Zm2.15,18.15H38.1a4.47,4.47,0,0,1-1.58.29H9.83A4.59,4.59,0,0,1,8.36,26,5.81,5.81,0,0,1,10,14.64a6.11,6.11,0,0,1,1.2.12l2.48.51V12.73A8.68,8.68,0,0,1,30.8,10.92l.54,2.3,2.24-.8a7.12,7.12,0,0,1,4.55,13.5h.08Z" transform="translate(0.08 0)"/><path class="cls-1" d="M14.23,33.24a1.58,1.58,0,0,0-2.16.58h0L10,37.48a1.58,1.58,0,0,0,1.37,2.38,1.6,1.6,0,0,0,1.37-.8l2.11-3.66a1.58,1.58,0,0,0-.6-2.15Z" transform="translate(0.08 0)"/><path class="cls-1" d="M24.27,33.24a1.58,1.58,0,0,0-2.16.58h0L20,37.48a1.59,1.59,0,1,0,2.75,1.58h0l2.11-3.66A1.59,1.59,0,0,0,24.27,33.24Z" transform="translate(0.08 0)"/><path class="cls-1" d="M34.3,33.24a1.59,1.59,0,0,0-2.16.58L30,37.48a1.58,1.58,0,1,0,2.74,1.58l2.11-3.66A1.58,1.58,0,0,0,34.3,33.24Z" transform="translate(0.08 0)"/><path class="cls-1" d="M17.2,40.11a1.58,1.58,0,0,0-2.16.58h0l-2.11,3.65a1.59,1.59,0,0,0,.58,2.17,1.59,1.59,0,0,0,2.16-.58l2.12-3.66a1.59,1.59,0,0,0-.58-2.16Z" transform="translate(0.08 0)"/><path class="cls-1" d="M27.23,40.11a1.56,1.56,0,0,0-2.14.55v0L23,44.34a1.6,1.6,0,0,0,.58,2.17,1.56,1.56,0,0,0,.79.21,1.6,1.6,0,0,0,1.38-.79l2.11-3.66a1.57,1.57,0,0,0-.59-2.14Z" transform="translate(0.08 0)"/></svg>