<svg id="Capa_1" data-name="Capa 1" xmlns="http://www.w3.org/2000/svg" viewBox="0 0 47.41 46.72"><defs><style>.cls-1{fill:#27224f;}.cls-2{fill:#0689cb;}</style></defs><title>clima</title><path class="cls-1" d="M36.06,7.77a12.47,12.47,0,0,0-1.73.13A12.84,12.84,0,0,0,22.44,0,13,13,0,0,0,9.78,10.41,10,10,0,0,0,7.09,30a8.87,8.87,0,0,0,2.74.44H36.52a8.69,8.69,0,0,0,3-.54A11.36,11.36,0,0,0,36.06,7.77Zm2.15,18.15-.11,0a4.37,4.37,0,0,1-1.58.29H9.83A4.61,4.61,0,0,1,8.36,26,5.81,5.81,0,0,1,10,14.64a6.11,6.11,0,0,1,1.2.12l2.48.51,0-2.54a8.68,8.68,0,0,1,17.12-1.81l.54,2.3,2.24-.8a7.12,7.12,0,1,1,4.55,13.5Z"/><path class="cls-2" d="M14.23,33.24a1.58,1.58,0,0,0-2.16.58L10,37.48a1.58,1.58,0,0,0,1.37,2.38,1.6,1.6,0,0,0,1.37-.8l2.11-3.66A1.58,1.58,0,0,0,14.23,33.24Z"/><path class="cls-2" d="M24.27,33.24a1.58,1.58,0,0,0-2.16.58L20,37.48a1.59,1.59,0,0,0,.58,2.17,1.59,1.59,0,0,0,2.17-.59l2.11-3.66A1.59,1.59,0,0,0,24.27,33.24Z"/><path class="cls-2" d="M34.3,33.24a1.59,1.59,0,0,0-2.16.58L30,37.48a1.59,1.59,0,0,0,.57,2.17,1.68,1.68,0,0,0,.8.21,1.57,1.57,0,0,0,1.37-.8l2.11-3.66A1.58,1.58,0,0,0,34.3,33.24Z"/><path class="cls-2" d="M17.2,40.11a1.58,1.58,0,0,0-2.16.58l-2.11,3.65a1.59,1.59,0,0,0,.58,2.17,1.61,1.61,0,0,0,.79.21,1.58,1.58,0,0,0,1.37-.79l2.12-3.66A1.58,1.58,0,0,0,17.2,40.11Z"/><path class="cls-2" d="M27.23,40.11a1.56,1.56,0,0,0-2.15.58L23,44.34a1.6,1.6,0,0,0,.58,2.17,1.64,1.64,0,0,0,.79.21,1.59,1.59,0,0,0,1.38-.79l2.11-3.66A1.57,1.57,0,0,0,27.23,40.11Z"/></svg>