<?xml version="1.0" encoding="utf-8"?>
<!-- Svg Vector Icons : http://www.onlinewebfonts.com/icon -->
<!DOCTYPE svg PUBLIC "-//W3C//DTD SVG 1.1//EN" "http://www.w3.org/Graphics/SVG/1.1/DTD/svg11.dtd">
<svg version="1.1" xmlns="http://www.w3.org/2000/svg" xmlns:xlink="http://www.w3.org/1999/xlink" x="0px" y="0px" viewBox="0 0 1000 1000" enable-background="new 0 0 1000 1000" xml:space="preserve">
<metadata> Svg Vector Icons : http://www.onlinewebfonts.com/icon </metadata>
<g><g transform="translate(0.000000,511.000000) scale(0.100000,-0.100000)"><path d="M4653.8,4783c-431.5-66.4-720-155.8-1072.4-337C3126.9,4211,2728.6,3848.5,2435,3401.6l-160.9-245.1l-217-46c-812-163.4-1526.9-776.2-1807.8-1547.3c-334.5-929.4-97-1953.3,612.8-2619.7c329.4-308.9,694.5-510.7,1138.8-623c163.4-43.4,395.8-46,3176.4-46c2721.9,0,3015.5,5.1,3153.4,43.4c551.5,153.2,949.9,436.6,1238.4,880.9c268.1,406,383,934.5,308.9,1399.2c-145.5,891.1-806.9,1560.1-1695.4,1708.2l-181.3,30.6l-40.8,166c-278.3,1100.5-1174.5,1966.1-2298,2221.4C5450.5,4772.8,4827.4,4808.5,4653.8,4783z M5394.3,3942.9c914.1-160.9,1652-898.8,1812.9-1812.9c20.4-122.6,38.3-308.9,38.3-411.1v-189h377.9c252.8,0,426.4-12.8,523.4-38.3c441.7-114.9,783.9-454.5,898.8-893.7c166-640.9-240-1309.9-893.7-1480.9c-222.1-56.2-5676.1-56.2-5949.3,0C1467.2-729.7,913.2-42.8,913.2,713c0,605.1,360,1187.3,893.7,1452.9c260.4,127.7,495.3,181.3,809.4,181.3h232.3l17.9,84.3c33.2,150.7,222.1,497.9,383,702.2C3760.1,3779.5,4572.1,4085.9,5394.3,3942.9z"/><path d="M7408.9-2269.3c-15.3-10.2-91.9-145.5-171.1-298.7c-171.1-344.7-268.1-439.2-623-610.3c-143-71.5-268.1-143-275.8-163.4c-23-61.3,33.2-104.7,316.6-247.7c331.9-166,418.7-255.3,584.7-589.8c145.5-291.1,189-339.6,250.2-288.6c23,17.9,97,148.1,168.5,288.6c166,334.5,252.8,423.8,584.7,589.8c148.1,74.1,283.4,153.2,301.3,176.2c51.1,61.3,2.5,104.7-288.5,250.2c-331.9,166-423.8,255.3-582.2,569.4C7511-2269.3,7475.3-2225.9,7408.9-2269.3z"/><path d="M2869-2629.4c-40.9-28.1-97-84.3-122.6-127.7c-46-71.5-326.8-1309.9-326.8-1442.6c0-99.6,109.8-275.8,204.3-324.3c120-63.8,314.1-63.8,421.3,2.5c46,28.1,107.2,99.6,135.3,158.3c51.1,104.7,311.5,1271.6,311.5,1399.2c0,99.6-99.6,275.8-188.9,331.9C3190.8-2563,2971.2-2563,2869-2629.4z"/><path d="M4911.7-2629.4c-40.9-28.1-97-84.3-122.6-127.7c-46-71.5-326.8-1309.9-326.8-1442.6c0-99.6,109.8-275.8,204.3-324.3c120-63.8,314.1-63.8,421.3,2.5c45.9,28.1,107.2,99.6,135.3,158.3c51.1,104.7,311.5,1271.6,311.5,1399.2c0,99.6-99.6,275.8-189,331.9C5233.4-2563,5013.8-2563,4911.7-2629.4z"/></g></g>
</svg>