<?xml version="1.0" encoding="utf-8"?>
<!-- Svg Vector Icons : http://www.onlinewebfonts.com/icon -->
<!DOCTYPE svg PUBLIC "-//W3C//DTD SVG 1.1//EN" "http://www.w3.org/Graphics/SVG/1.1/DTD/svg11.dtd">
<svg version="1.1" xmlns="http://www.w3.org/2000/svg" xmlns:xlink="http://www.w3.org/1999/xlink" x="0px" y="0px" viewBox="0 0 1000 1000" enable-background="new 0 0 1000 1000" xml:space="preserve">
<metadata> Svg Vector Icons : http://www.onlinewebfonts.com/icon </metadata>
<g><g transform="translate(0.000000,511.000000) scale(0.100000,-0.100000)"><path d="M4654.1,4388.7c-431.4-66.4-719.9-155.7-1072.2-337c-454.4-234.9-852.6-597.4-1146.2-1044.1l-160.8-245.1l-217-45.9C771.3,2456.2-89,1195.1,135.7-96.5c76.6-436.5,296.1-898.6,569.3-1192.2l120-130.2l140.4,130.2c76.6,68.9,224.6,171,331.9,224.6c104.7,51.1,196.6,97,201.7,99.6c5.1,2.5-61.3,84.2-148.1,178.7C753.4-137.4,776.4,848,1396.7,1470.9c329.3,326.8,717.3,479.9,1220.2,482.5h232.3l17.9,84.2c33.2,150.6,222.1,497.8,380.4,699.5c834.8,1054.3,2399.6,1136,3346.7,176.2c416.1-421.2,651-995.6,651-1587.8v-188.9h377.8c255.3,0,426.3-12.8,528.4-38.3c653.5-171,1059.4-839.8,893.5-1475.5c-45.9-173.6-137.9-362.5-229.7-472.3l-66.4-79.1l109.8-28.1c148.1-40.8,367.6-155.7,505.4-265.5c132.8-104.7,130.2-104.7,265.5,122.5C9790.2-834.3,9900-418.2,9900-86.3c0,505.4-199.1,1003.2-556.5,1381c-324.2,342.1-694.4,538.6-1161.5,617.8l-181.3,30.6l-40.8,165.9C7681.6,3209.3,6785.6,4074.7,5662.4,4330C5450.5,4378.5,4827.6,4414.2,4654.1,4388.7z"/><path d="M3364.9-530.5c-125.1-40.8-339.5-260.4-377.8-390.6c-71.5-240-20.4-431.4,160.8-610.1c257.8-260.4,584.6-260.4,842.4,0c260.4,257.8,260.4,584.6,0,842.4C3811.6-507.5,3602.3-456.5,3364.9-530.5z"/><path d="M6632.5-530.5c-125.1-40.8-339.5-260.4-377.8-390.6c-71.5-240-20.4-431.4,160.8-610.1c178.7-181.2,370.2-232.3,610.1-160.8c140.4,40.8,352.3,252.7,393.1,393.1c71.5,240,20.4,431.4-160.8,610.1C7079.2-507.5,6869.9-456.5,6632.5-530.5z"/><path d="M1718.4-1763.5c-140.4-51.1-308.9-224.6-357.4-365c-81.7-242.5-33.2-441.7,153.2-628c257.8-260.4,584.6-260.4,842.4,0c260.4,257.9,260.4,584.6,0,842.4C2172.8-1727.8,1955.8-1676.7,1718.4-1763.5z"/><path d="M4998.7-1755.8c-125.1-40.8-339.5-260.4-377.8-390.6c-71.5-240-20.4-431.4,160.8-610.1c178.7-181.2,370.1-232.3,610.1-160.8c140.4,40.8,352.3,252.7,393.1,393.1c71.5,239.9,20.4,431.4-160.8,610.1C5445.4-1732.9,5236.1-1681.8,4998.7-1755.8z"/><path d="M8266.2-1755.8c-125.1-40.8-339.5-260.4-377.8-390.6c-71.5-240-20.4-431.4,160.8-610.1c178.7-181.2,370.1-232.3,610.1-160.8c140.4,40.8,352.3,252.7,393.1,393.1c71.5,239.9,20.4,431.4-160.8,610.1C8713-1732.9,8503.6-1681.8,8266.2-1755.8z"/><path d="M3364.9-2981.2c-125.1-40.9-339.5-260.4-377.8-390.6c-71.5-240-20.4-431.4,160.8-610.1c257.8-260.4,584.6-260.4,842.4,0c260.4,257.8,260.4,584.6,0,842.4C3811.6-2958.2,3602.3-2907.2,3364.9-2981.2z"/><path d="M6619.7-2988.8c-214.4-79.2-395.7-337-395.7-566.7c0-321.7,293.6-617.8,612.7-617.8c316.6,0,612.7,296.1,612.7,612.7c0,160.8-58.7,291-191.5,421.2C7074.1-2953.1,6857.1-2902.1,6619.7-2988.8z"/></g></g>
</svg>