<svg id="Capa_1" data-name="Capa 1" xmlns="http://www.w3.org/2000/svg" viewBox="0 0 47.35 47.47"><defs><style>.cls-1{fill:#fff;}</style></defs><title>clima_nieve BLANCO</title><path class="cls-1" d="M36.06,7.77a12.47,12.47,0,0,0-1.73.13A12.83,12.83,0,0,0,22.44,0,13,13,0,0,0,9.78,10.41,10,10,0,0,0,7.09,30a8.78,8.78,0,0,0,2.74.44H36.52a8.56,8.56,0,0,0,3-.54A11.36,11.36,0,0,0,36.06,7.77Zm2.15,18.15H38.1a4.47,4.47,0,0,1-1.58.29H9.83A4.59,4.59,0,0,1,8.36,26,5.81,5.81,0,0,1,10,14.64a6.11,6.11,0,0,1,1.2.12l2.48.51V12.73A8.68,8.68,0,0,1,30.8,10.92l.54,2.3,2.24-.8a7.12,7.12,0,0,1,4.55,13.5h.08Z" transform="translate(0.08 0)"/><path class="cls-1" d="M16.08,36.58a1.58,1.58,0,0,0-1.52-1.64h0l-4.23-.16a1.57,1.57,0,0,0-1.64,1.5v0a1.57,1.57,0,0,0,1.52,1.63l4.22.17A1.6,1.6,0,0,0,16.08,36.58Z" transform="translate(0.08 0)"/><path class="cls-1" d="M12.57,40.13a1.58,1.58,0,0,0,1.5-1.65l-.21-4.23a1.59,1.59,0,0,0-1.67-1.5,1.63,1.63,0,0,0-.77.25,1.6,1.6,0,0,0-.73,1.41l.22,4.22a1.57,1.57,0,0,0,1.64,1.5Z" transform="translate(0.08 0)"/><path class="cls-1" d="M34.29,37A1.59,1.59,0,0,0,33,35.19l-4.18-.62A1.56,1.56,0,0,0,27,35.83s0,.05,0,.07a1.41,1.41,0,0,0,.09.81,1.59,1.59,0,0,0,1.24,1l4.18.62A1.59,1.59,0,0,0,34.29,37Z" transform="translate(0.08 0)"/><path class="cls-1" d="M30.42,40.13a1.58,1.58,0,0,0,1.67-1.48l.25-4.22a1.58,1.58,0,0,0-1.47-1.68h0a1.66,1.66,0,0,0-.79.17,1.58,1.58,0,0,0-.88,1.32l-.24,4.22a1.58,1.58,0,0,0,1.48,1.67Z" transform="translate(0.08 0)"/><path class="cls-1" d="M25.49,36.6A1.58,1.58,0,0,0,24,35l-4.22-.18a1.57,1.57,0,0,0-1.65,1.49v0a1.45,1.45,0,0,0,.17.79,1.61,1.61,0,0,0,1.34.86l4.22.18a1.59,1.59,0,0,0,1.63-1.55Z" transform="translate(0.08 0)"/><path class="cls-1" d="M22,40.14a1.59,1.59,0,0,0,1.51-1.66l-.2-4.22a1.59,1.59,0,0,0-1.66-1.51,1.5,1.5,0,0,0-.77.25,1.56,1.56,0,0,0-.73,1.41l.19,4.22A1.59,1.59,0,0,0,22,40.14Z" transform="translate(0.08 0)"/><path class="cls-1" d="M20.46,44.3a1.6,1.6,0,0,0-1.34-1.79l-4.18-.6a1.58,1.58,0,1,0-.93,3,1.49,1.49,0,0,0,.47.07l4.18.61A1.6,1.6,0,0,0,20.46,44.3Z" transform="translate(0.08 0)"/><path class="cls-1" d="M16.6,47.47A1.58,1.58,0,0,0,18.26,46l.24-4.23A1.58,1.58,0,0,0,17,40.09h0a1.57,1.57,0,0,0-1.67,1.49L15.1,45.8A1.59,1.59,0,0,0,16.6,47.47Z" transform="translate(0.08 0)"/><path class="cls-1" d="M29.9,44a1.57,1.57,0,0,0-1.46-1.68L24.22,42a1.58,1.58,0,0,0-1.69,1.44v0A1.57,1.57,0,0,0,24,45.18l4.21.3A1.59,1.59,0,0,0,29.9,44Z" transform="translate(0.08 0)"/><path class="cls-1" d="M26.29,47.47a1.58,1.58,0,0,0,1.55-1.61h0l-.08-4.22a1.58,1.58,0,0,0-1.6-1.56h0a1.65,1.65,0,0,0-.78.23,1.59,1.59,0,0,0-.77,1.38l.08,4.23A1.59,1.59,0,0,0,26.29,47.47Z" transform="translate(0.08 0)"/></svg>